# xmcd
#
# Track frame offsets: 
#        150
#        23637
#        39344
#        60384
#        77992
#        95968
#        116960
#        140173
#        155878
#        168664
#        187432
#        206910
#        224668
#        242406
#        272164
#
# Disc length: 4093 seconds
#
# Revision: 0
# Processed by: cddbd v1.5.2PL0 Copyright (c) Steve Scherf et al.
# Submitted via: ExactAudioCopy v0.99pb5
#
DISCID=f30ffb0f
DTITLE=The Baddest Blues Band (Ever!) - Driving in the Rain
DYEAR=2009
DGENRE=Blues
TTITLE0=Broken Heart Blues
TTITLE1=Driving in the Rain
TTITLE2=Heroes
TTITLE3=Too Much of a Good Thing
TTITLE4=Buck
TTITLE5=Good Lord Please Tell Me What to Say
TTITLE6=I'm in the Mood
TTITLE7=Come Home Sweet Baby
TTITLE8=You're Not Alone
TTITLE9=Let Me Sing the Blues
TTITLE10=Don't Preach to Me
TTITLE11=We're Going Wrong
TTITLE12=If I Didn't Care
TTITLE13=Heartbreak Tears
TTITLE14=I Can't Quit You Babe
EXTD=
EXTT0=
EXTT1=
EXTT2=
EXTT3=
EXTT4=
EXTT5=
EXTT6=
EXTT7=
EXTT8=
EXTT9=
EXTT10=
EXTT11=
EXTT12=
EXTT13=
EXTT14=
PLAYORDER=
